<svg version="1.1" id="Layer_1" xmlns="http://www.w3.org/2000/svg" xmlns:xlink="http://www.w3.org/1999/xlink" x="0px" y="0px"
	 width="100%" viewBox="0 0 229 221" enable-background="new 0 0 229 221" xml:space="preserve">
<path fill="#FEFEFE" opacity="1.000000" stroke="none" 
	d="
M81.000000,222.000000 
	C54.349499,222.000000 27.698996,222.000000 1.024247,222.000000 
	C1.024247,148.394165 1.024247,74.788307 1.024247,1.091230 
	C77.226143,1.091230 153.452438,1.091230 230.000000,1.091230 
	C230.000000,64.687202 230.000000,128.374939 229.619797,192.504471 
	C224.315384,190.937271 219.448410,188.768875 214.447495,186.973511 
	C210.923660,185.708435 207.268921,184.498413 203.580261,184.082169 
	C199.185883,183.586304 194.692780,183.965378 189.964020,183.965378 
	C191.161011,179.016403 191.940765,174.929626 193.163345,170.979889 
	C194.389679,167.017975 196.276245,163.259415 197.485092,159.293335 
	C199.786209,151.743698 201.810684,144.109741 204.187073,136.282440 
	C205.590561,131.035019 206.757019,126.015945 208.035980,120.593437 
	C208.457397,114.047737 208.225876,107.817924 209.203278,101.783951 
	C210.631516,92.966843 207.606186,85.395004 204.109375,77.388229 
	C203.337265,74.099960 202.973969,71.001549 201.668304,68.370857 
	C199.843155,64.693474 197.315002,61.365013 195.096497,57.931602 
	C195.105347,57.975945 195.157120,57.901802 195.125916,57.551838 
	C194.068283,56.390049 193.041824,55.578224 191.840668,54.470207 
	C188.525391,52.777187 185.384827,51.380363 182.084442,49.594330 
	C176.966537,48.439922 172.008469,47.674732 167.061386,46.946739 
	C167.072388,46.983940 167.131042,46.933163 167.068298,46.586266 
	C163.595154,39.651978 157.865250,35.868408 150.844635,35.043224 
	C147.819763,34.687691 143.502213,32.711464 140.594635,36.981323 
	C137.839676,38.440941 135.437927,39.844231 132.689880,41.287346 
	C128.768585,43.537216 125.193588,45.747253 121.317757,48.024536 
	C119.374420,49.015545 117.731903,49.939304 115.694260,50.817596 
	C112.852890,50.775002 110.400902,50.671017 107.961594,50.802456 
	C102.474419,51.098133 102.081673,51.785851 104.007896,57.213116 
	C103.910179,57.402603 103.909660,57.829002 103.543350,57.857834 
	C98.502548,59.747982 98.891563,64.195251 97.700012,68.218842 
	C97.738976,70.023293 98.092171,71.604698 98.415123,73.563263 
	C98.175507,74.928421 97.966125,75.916412 97.517006,76.946152 
	C96.977341,77.184509 96.832100,77.462128 96.929611,77.890747 
	C97.017677,77.960739 96.851082,77.807274 96.583191,77.786194 
	C95.536507,78.182983 94.757706,78.600845 93.584290,78.978020 
	C89.295807,78.777725 86.186874,80.563332 85.169556,84.107002 
	C83.379868,90.341141 82.310616,96.783165 81.005943,103.151711 
	C80.951981,103.415131 81.569534,103.816101 81.882042,104.559250 
	C81.819672,106.586983 81.749504,108.208458 81.406403,109.981537 
	C80.744987,111.023628 80.356514,111.914116 79.653519,112.843208 
	C79.177574,113.557121 79.016144,114.232445 78.559326,114.921143 
	C77.873024,114.891090 77.482117,114.847656 76.897766,114.472839 
	C74.334267,114.093468 71.964203,114.045464 69.454681,113.691635 
	C66.738571,112.280579 64.161911,111.175346 61.585247,110.070122 
	C61.984962,109.992874 62.384682,109.915627 62.784401,109.838387 
	C61.550396,107.165443 60.316395,104.492508 58.941273,101.490646 
	C54.056950,97.002289 49.583588,96.505157 44.726368,100.133820 
	C39.740574,103.858528 34.564865,106.383698 28.094582,106.022598 
	C26.766302,105.948463 24.545900,107.717903 24.110703,109.077400 
	C23.447956,111.147736 23.984173,113.601868 23.962273,116.269714 
	C23.304564,118.143913 22.695807,119.641418 21.892729,121.422791 
	C18.458324,125.209000 20.903839,127.802353 23.360737,129.962891 
	C25.885960,132.183533 26.226809,134.571075 24.841604,137.276398 
	C23.119741,140.639236 24.140076,143.130814 26.856113,145.528046 
	C26.879484,145.754883 27.260199,146.004196 27.266834,146.195740 
	C27.513885,146.485260 27.754301,146.583252 28.301926,146.918671 
	C29.767012,149.921738 30.924891,152.687393 32.176933,155.589203 
	C32.271099,155.725357 32.578117,155.849350 32.795994,156.158783 
	C37.467762,157.887207 41.524101,157.145615 45.173546,154.125580 
	C45.166752,154.021576 45.209446,154.226257 45.508858,154.196533 
	C46.201096,154.084152 46.593918,154.001480 47.327862,153.981369 
	C48.806438,152.442581 49.943893,150.841263 51.453484,149.196014 
	C53.735195,148.208588 55.667751,146.417236 57.550365,146.468262 
	C65.709671,146.689423 73.854385,147.448547 82.375366,148.101044 
	C83.548836,149.834534 84.351349,151.479065 85.179062,153.497162 
	C85.956673,156.607117 86.794998,159.323257 87.445129,162.083710 
	C89.279404,169.872025 90.675224,177.839661 86.942650,185.322769 
	C83.699631,191.824402 82.323273,198.423065 82.744064,205.595703 
	C82.873634,207.804413 82.106728,210.054855 81.866951,212.298660 
	C81.522018,215.526459 81.283775,218.765671 81.000000,222.000000 
z"/>
<path fill="#468302" opacity="1.000000" stroke="none" 
	d="
M79.968033,112.804611 
	C80.356514,111.914116 80.744987,111.023628 81.765266,110.075714 
	C85.931824,113.321388 89.466583,116.624489 93.243797,119.958328 
	C93.486259,119.989059 93.971931,120.044197 94.120010,120.349464 
	C96.076431,122.051811 97.683289,124.012161 99.729546,124.744080 
	C106.876518,127.300461 114.077644,129.837128 121.443214,131.614594 
	C129.188828,133.483795 137.146988,134.472260 145.340790,135.886566 
	C146.109711,135.905823 146.550079,135.884094 147.452606,135.911362 
	C152.605759,135.625717 157.296783,135.291077 162.315125,134.849335 
	C164.194641,133.074142 165.746841,131.406052 167.629745,129.751282 
	C167.978683,128.490875 167.996918,127.217148 168.008942,125.612335 
	C166.784866,123.849373 165.566971,122.417496 164.266953,120.889061 
	C162.801483,122.238701 161.839417,123.124710 160.482788,123.993668 
	C153.382355,122.686523 146.676529,121.396446 139.598541,120.036331 
	C128.166779,116.289742 117.107170,112.613182 105.876404,108.684433 
	C104.803474,107.969040 103.901703,107.505821 102.689774,106.887817 
	C100.451706,105.505318 98.479485,104.341385 96.603729,103.038574 
	C89.410728,98.042641 89.716721,90.521729 89.994598,82.710678 
	C91.035355,81.622292 92.030724,80.861259 93.236313,80.329056 
	C94.581383,79.641014 95.716232,78.724144 96.851082,77.807274 
	C96.851082,77.807274 97.017677,77.960739 97.151764,77.960907 
	C97.285858,77.961067 97.738838,78.070587 98.058670,78.080399 
	C98.591125,78.072792 98.803741,78.055382 99.211967,78.301743 
	C100.600800,79.321396 101.794022,80.077278 103.069336,80.885170 
	C104.177002,79.024216 105.144814,77.398216 106.336357,75.763283 
	C106.560089,75.754341 106.991547,75.631760 106.991547,75.631760 
	C106.991547,75.631760 107.421227,75.760521 107.635910,76.067757 
	C110.230560,77.925079 112.610527,79.475166 114.790955,81.296013 
	C110.851616,83.238068 109.349915,85.878197 110.700165,90.024940 
	C109.784126,90.957390 109.160858,91.744522 108.227783,92.922913 
	C112.909363,91.474663 116.963501,90.220512 121.148834,88.665985 
	C121.850319,87.242813 122.420609,86.120003 123.112946,85.262581 
	C123.820305,86.018509 124.405602,86.509041 124.994331,87.395584 
	C125.650665,89.613625 125.769775,92.061707 127.047401,93.151077 
	C133.096237,98.308662 132.819641,105.760483 135.169067,112.401802 
	C135.499985,112.364487 136.363693,112.358803 137.174454,112.148819 
	C137.925156,111.954391 139.060623,111.692863 139.233597,111.188751 
	C139.486023,110.453156 139.347305,109.093697 138.825531,108.656845 
	C132.742615,103.563896 134.979385,96.901718 135.628632,90.610680 
	C137.621033,91.130531 139.243347,91.645493 141.040436,92.457710 
	C146.836533,98.071182 153.780624,98.288864 161.343857,97.895248 
	C164.184418,97.945625 166.573532,97.960907 169.342285,98.025269 
	C172.142029,98.053833 174.562119,98.033318 177.028290,98.333435 
	C177.718994,99.099419 178.363632,99.544769 179.281555,100.099335 
	C182.478455,99.905067 182.785828,99.502556 182.004272,96.583366 
	C181.489853,93.751968 181.156097,91.279510 180.418076,88.934250 
	C179.558029,86.201149 179.301971,82.703712 175.020035,82.644730 
	C175.008621,81.877365 175.004318,81.438538 174.893814,80.780426 
	C174.590210,80.285789 174.328430,80.102280 173.777802,80.109062 
	C173.275726,80.399452 173.074677,80.652306 172.720825,80.966492 
	C172.491425,80.966911 172.032593,80.963989 172.023254,80.721146 
	C172.013931,80.478294 171.992676,79.992706 171.976654,79.695663 
	C171.641022,78.932922 171.321396,78.467216 170.763916,77.992584 
	C170.526047,77.983658 170.050583,77.959427 169.929291,77.746407 
	C169.595291,77.270287 169.326431,77.091713 168.608017,76.994232 
	C165.624100,75.820976 163.106888,74.423019 160.418076,73.559158 
	C158.532440,72.953339 155.444427,69.517235 154.641876,74.927658 
	C153.210434,74.255386 152.105560,73.626488 150.592575,72.996704 
	C148.629379,72.838440 147.074295,72.681061 145.519196,72.523682 
	C145.578400,72.106750 145.637604,71.689812 145.696808,71.272881 
	C148.245743,71.450844 150.794662,71.628807 153.343597,71.806770 
	C153.409012,71.447899 153.474411,71.089020 153.539825,70.730148 
	C152.493683,70.241356 151.447540,69.752563 150.178146,69.159462 
	C151.198654,68.246040 151.945694,67.577377 153.445648,66.234810 
	C151.127228,66.351143 149.820389,66.416718 148.241257,66.495956 
	C149.340866,65.050697 150.156967,63.978054 151.183716,62.651142 
	C154.608978,60.008945 157.823593,57.621021 161.400909,55.139610 
	C168.332718,52.315796 174.710526,48.811550 182.244247,49.983543 
	C185.384827,51.380363 188.525391,52.777187 191.626755,54.686646 
	C192.777405,56.100121 193.967255,57.000957 195.157120,57.901802 
	C195.157120,57.901802 195.105347,57.975945 194.996094,58.307549 
	C197.619934,65.417320 200.353012,72.195488 203.126373,79.346184 
	C204.124084,82.537491 205.784424,85.324333 205.914215,88.180733 
	C206.410110,99.092590 206.413269,110.026840 206.363281,121.219147 
	C205.400772,126.493973 204.675400,131.502380 203.950027,136.510788 
	C201.810684,144.109741 199.786209,151.743698 197.485092,159.293335 
	C196.276245,163.259415 194.389679,167.017975 193.163345,170.979889 
	C191.940765,174.929626 191.161011,179.016403 189.964020,183.965378 
	C194.692780,183.965378 199.185883,183.586304 203.580261,184.082169 
	C207.268921,184.498413 210.923660,185.708435 214.447495,186.973511 
	C219.448410,188.768875 224.315384,190.937271 229.619797,192.973129 
	C230.000000,202.642853 230.000000,212.285706 230.000000,222.000000 
	C180.645798,222.000000 131.291550,222.000000 81.468658,222.000000 
	C81.283775,218.765671 81.522018,215.526459 81.866951,212.298660 
	C82.106728,210.054855 82.873634,207.804413 82.744064,205.595703 
	C82.323273,198.423065 83.699631,191.824402 86.942650,185.322769 
	C90.675224,177.839661 89.279404,169.872025 87.445129,162.083710 
	C86.794998,159.323257 85.956673,156.607117 85.556732,153.427460 
	C86.030067,151.535507 86.483116,150.022995 86.219009,148.648254 
	C84.187538,138.073822 82.016891,127.526123 79.951691,116.556992 
	C79.998634,115.030777 79.983337,113.917694 79.968033,112.804611 
M136.736633,99.182793 
	C136.623077,99.026215 136.509506,98.869637 136.395950,98.713066 
	C136.418793,98.930733 136.441635,99.148399 136.736633,99.182793 
z"/>
<path fill="#468104" opacity="1.000000" stroke="none" 
	d="
M133.036163,41.247520 
	C135.437927,39.844231 137.839676,38.440941 141.002991,36.988907 
	C150.829742,34.491241 157.610245,38.587379 163.781448,44.552868 
	C164.755112,45.494080 166.007523,46.146965 167.131042,46.933167 
	C167.131042,46.933163 167.072388,46.983940 166.984955,47.313248 
	C164.899506,49.706036 162.901520,51.769520 160.568817,53.919731 
	C157.498779,55.704861 154.763474,57.403259 151.827332,58.827412 
	C146.415802,56.814651 147.000778,61.980747 144.827148,64.363503 
	C141.799866,66.120918 138.969589,67.609932 135.894623,68.954086 
	C135.073090,68.470772 134.496262,68.132301 133.919418,67.793839 
	C134.002411,68.624336 134.085403,69.454842 134.005585,70.500443 
	C133.546524,71.147194 133.250259,71.578857 132.585541,72.006470 
	C131.480072,72.003548 130.743088,72.004677 130.002930,72.002838 
	C129.999756,71.999886 129.994446,71.996094 129.996399,71.613556 
	C130.387558,69.368492 130.776764,67.505981 131.220047,65.384712 
	C129.235504,64.360252 127.021568,63.217384 124.565315,61.942986 
	C123.891129,61.462082 123.459259,61.112701 123.226639,60.567535 
	C124.062386,60.005154 124.698868,59.638554 125.335358,59.271957 
	C124.893082,58.846569 124.450798,58.421177 123.995041,57.621155 
	C121.339226,55.831844 118.696899,54.417164 116.057648,52.645798 
	C116.070290,51.813763 116.079842,51.338409 116.089394,50.863060 
	C117.731903,49.939304 119.374420,49.015545 121.687454,48.117271 
	C126.941917,47.724731 131.525864,47.306702 137.615173,46.751392 
	C134.642273,45.732395 133.082977,45.197929 131.505035,44.657070 
	C132.109604,43.310795 132.572891,42.279160 133.036163,41.247520 
z"/>
<path fill="#2C5203" opacity="1.000000" stroke="none" 
	d="
M69.594131,113.997467 
	C71.964203,114.045464 74.334267,114.093468 76.894653,114.799515 
	C77.409485,115.986839 77.734009,116.516129 78.057579,117.435791 
	C79.681091,126.022385 81.390015,134.203613 82.849678,142.429062 
	C83.102943,143.856232 82.302200,145.470444 81.561462,146.981476 
	C76.249466,146.635086 71.368607,146.157043 66.477989,146.014709 
	C60.791142,145.849213 55.465672,145.262375 52.630714,139.008087 
	C51.501202,139.002411 50.748222,138.998825 49.997574,138.997620 
	C49.999912,138.999985 50.004032,139.002670 50.020340,138.765442 
	C50.036644,138.528198 50.051582,138.052841 50.044788,138.043610 
	C50.037994,138.034363 50.054085,138.037704 50.344994,138.009491 
	C51.074635,137.649506 51.513363,137.317734 52.217957,136.878784 
	C53.054943,136.339767 53.626064,135.907959 54.197186,135.476135 
	C53.792358,135.314972 53.387527,135.153824 53.114494,134.684616 
	C53.541412,133.542603 53.836525,132.708633 54.485619,131.827026 
	C55.572342,129.189575 56.305092,126.599754 57.332069,123.851402 
	C58.050175,123.193932 58.613319,122.759064 58.876789,122.186340 
	C62.220345,114.918236 62.306141,114.839012 69.594131,113.997467 
z"/>
<path fill="#457E08" opacity="1.000000" stroke="none" 
	d="
M24.011227,115.893013 
	C23.984173,113.601868 23.447956,111.147736 24.110703,109.077400 
	C24.545900,107.717903 26.766302,105.948463 28.094582,106.022598 
	C34.564865,106.383698 39.740574,103.858528 44.726368,100.133820 
	C49.583588,96.505157 54.056950,97.002289 58.940971,101.915474 
	C61.330750,110.155220 59.625935,116.605362 53.742157,121.925797 
	C52.976681,121.551987 52.478271,121.282982 51.832775,120.682541 
	C50.405941,115.727989 49.126194,111.104866 47.701324,105.957489 
	C46.676510,106.073410 45.030025,106.259651 42.585258,106.536194 
	C47.760143,109.752472 48.580898,115.045433 45.057709,117.314751 
	C40.680687,120.134010 27.995087,119.277069 24.011227,115.893013 
z"/>
<path fill="#457D07" opacity="1.000000" stroke="none" 
	d="
M49.995239,138.995239 
	C50.748222,138.998825 51.501202,139.002411 52.624649,139.434326 
	C52.357193,142.988419 51.719273,146.114166 51.081352,149.239929 
	C49.943893,150.841263 48.806438,152.442581 47.216873,153.774841 
	C46.562576,153.253479 46.307121,153.079315 45.952888,152.618317 
	C44.354828,151.085236 42.802269,149.917130 41.112625,148.645859 
	C41.718529,147.475449 42.359341,146.237610 43.219917,144.845139 
	C43.442341,144.291260 43.445004,143.891998 43.447662,143.492752 
	C42.964680,143.662033 42.481693,143.831329 41.624069,144.000565 
	C40.500168,144.001541 39.750896,144.002563 38.706245,144.127655 
	C37.607494,144.502792 36.804131,144.753845 35.730263,144.808472 
	C35.367233,143.160156 35.262161,141.708954 35.186146,140.256226 
	C35.125004,139.087784 35.576496,137.437881 34.970882,136.834976 
	C32.878212,134.751724 27.487822,136.905853 27.068333,139.902237 
	C26.819715,141.678070 26.900227,143.500000 26.832745,145.301193 
	C24.140076,143.130814 23.119741,140.639236 24.841604,137.276398 
	C26.226809,134.571075 25.885960,132.183533 23.360737,129.962891 
	C20.903839,127.802353 18.458324,125.209000 22.260235,121.370499 
	C24.229429,120.898567 25.640852,120.617126 27.043360,120.656151 
	C30.365040,120.748550 33.682487,120.993080 37.001945,121.557083 
	C38.045319,125.133713 39.088398,128.329376 40.142681,131.559357 
	C39.014610,131.886261 37.705891,132.265503 36.397171,132.644760 
	C36.305168,133.145996 36.213169,133.647247 36.121166,134.148483 
	C41.204266,133.484970 45.573124,134.617905 49.077381,137.986893 
	C49.257114,138.159698 49.720348,138.037628 50.051582,138.052841 
	C50.051582,138.052841 50.036644,138.528198 49.814957,138.890106 
	C49.611469,139.601593 49.629673,139.951157 49.647873,140.300735 
	C49.763660,139.865570 49.879448,139.430405 49.995239,138.995239 
M45.627472,142.654755 
	C45.880817,142.580139 46.134163,142.505524 46.387508,142.430893 
	C46.112755,142.149796 45.838001,141.868683 45.563251,141.587585 
	C45.482334,141.839035 45.401417,142.090485 45.627472,142.654755 
M47.493839,140.581055 
	C47.493839,140.581055 47.431465,140.475311 47.493839,140.581055 
z"/>
<path fill="#8B5F22" opacity="1.000000" stroke="none" 
	d="
M102.999931,107.042595 
	C103.901703,107.505821 104.803474,107.969040 105.986313,109.015930 
	C105.518448,110.400826 104.879166,111.358360 104.000549,111.974747 
	C101.052208,114.043152 98.018494,115.989868 95.006905,117.992798 
	C94.996361,118.002434 94.975220,118.019730 94.662842,118.053787 
	C93.900749,118.701088 93.451042,119.314339 93.001335,119.927589 
	C89.466583,116.624489 85.931824,113.321388 82.038208,109.924118 
	C81.749504,108.208458 81.819672,106.586983 82.159103,104.427742 
	C82.829773,103.883804 83.231171,103.877632 83.864662,104.094803 
	C85.041626,103.857735 85.986511,103.397316 87.160378,102.825317 
	C91.069870,105.364777 92.293251,112.067200 98.954842,112.330406 
	C97.993446,110.165649 97.316780,108.641998 97.014221,107.960739 
	C99.508026,107.578217 101.253983,107.310402 102.999931,107.042595 
z"/>
<path fill="#457E07" opacity="1.000000" stroke="none" 
	d="
M39.001629,144.003586 
	C39.750896,144.002563 40.500168,144.001541 41.732910,144.219330 
	C42.416302,144.710953 42.677555,144.898163 43.000153,144.999771 
	C42.359341,146.237610 41.718529,147.475449 41.112625,148.645859 
	C42.802269,149.917130 44.354828,151.085236 45.732430,152.760925 
	C45.441463,153.587753 45.325455,153.907013 45.209446,154.226257 
	C45.209446,154.226257 45.166752,154.021576 44.738930,154.052612 
	C40.400108,154.672211 36.489113,155.260773 32.578117,155.849335 
	C32.578117,155.849350 32.271099,155.725357 32.415276,155.248535 
	C32.706867,151.840347 32.854279,148.908997 33.000172,145.590088 
	C32.300522,143.728378 31.602390,142.254196 30.904261,140.780029 
	C30.410669,141.002014 29.917078,141.223999 29.423487,141.445984 
	C29.610178,142.629440 29.796869,143.812881 29.719860,145.111954 
	C28.968544,145.533951 28.480928,145.840317 27.813107,146.095245 
	C27.632904,146.043808 27.260199,146.004196 27.260199,146.004196 
	C27.260199,146.004196 26.879484,145.754883 26.856113,145.528046 
	C26.900227,143.500000 26.819715,141.678070 27.068333,139.902237 
	C27.487822,136.905853 32.878212,134.751724 34.970882,136.834976 
	C35.576496,137.437881 35.125004,139.087784 35.186146,140.256226 
	C35.262161,141.708954 35.367233,143.160156 35.930222,145.061920 
	C37.267670,145.009064 38.134647,144.506332 39.001629,144.003586 
z"/>
<path fill="#E7E8E9" opacity="1.000000" stroke="none" 
	d="
M107.421227,75.760521 
	C107.421227,75.760521 106.991547,75.631760 106.991547,75.631760 
	C106.991547,75.631760 106.560089,75.754341 106.221619,75.503853 
	C105.339767,74.757713 104.796387,74.262062 104.131554,73.878143 
	C104.010094,73.989891 104.232948,73.746231 104.148056,73.366409 
	C103.098526,71.588486 102.133888,70.190392 100.467857,67.775726 
	C100.186562,70.073776 100.015450,71.471680 99.608055,72.918671 
	C99.088806,73.150146 98.780006,73.222923 98.445374,73.186104 
	C98.092171,71.604698 97.738976,70.023293 98.131218,68.260834 
	C99.589699,67.564713 100.934837,67.022530 100.914093,66.538918 
	C100.769829,63.175278 102.759422,62.826328 105.331367,63.027096 
	C106.626839,63.128223 107.929092,63.142548 109.444351,63.413887 
	C110.687325,63.770603 111.714211,63.909550 112.730171,64.385742 
	C110.953232,68.402161 109.187233,72.081337 107.421227,75.760521 
z"/>
<path fill="#0F1E0A" opacity="1.000000" stroke="none" 
	d="
M37.001648,121.176109 
	C33.682487,120.993080 30.365040,120.748550 27.043360,120.656151 
	C25.640852,120.617126 24.229429,120.898567 22.454556,121.086639 
	C22.695807,119.641418 23.304564,118.143913 23.962273,116.269714 
	C27.995087,119.277069 40.680687,120.134010 45.057709,117.314751 
	C48.580898,115.045433 47.760143,109.752472 42.585258,106.536194 
	C45.030025,106.259651 46.676510,106.073410 47.701324,105.957489 
	C49.126194,111.104866 50.405941,115.727989 51.847557,120.672211 
	C52.009422,120.993324 52.037155,120.971054 51.697052,120.981262 
	C50.904896,121.024422 50.452835,121.057381 49.773178,120.960907 
	C49.337334,120.555618 49.129086,120.279755 48.743881,119.703522 
	C46.597656,119.886566 44.628395,120.369995 42.254772,120.847755 
	C40.234154,120.953430 38.617901,121.064774 37.001648,121.176109 
z"/>
<path fill="#1B2613" opacity="1.000000" stroke="none" 
	d="
M206.600449,120.952728 
	C206.413269,110.026840 206.410110,99.092590 205.914215,88.180733 
	C205.784424,85.324333 204.124084,82.537491 203.352600,79.204483 
	C203.724945,78.389091 203.911331,78.087929 204.097717,77.786774 
	C207.606186,85.395004 210.631516,92.966843 209.203278,101.783951 
	C208.225876,107.817924 208.457397,114.047737 207.705048,120.587173 
	C207.041245,120.973808 206.820847,120.963264 206.600449,120.952728 
z"/>
<path fill="#192514" opacity="1.000000" stroke="none" 
	d="
M51.453484,149.196014 
	C51.719273,146.114166 52.357193,142.988419 53.001183,139.436401 
	C55.465672,145.262375 60.791142,145.849213 66.477989,146.014709 
	C71.368607,146.157043 76.249466,146.635086 81.560898,147.235016 
	C81.992905,147.674240 81.998657,147.843155 82.004410,148.012070 
	C73.854385,147.448547 65.709671,146.689423 57.550365,146.468262 
	C55.667751,146.417236 53.735195,148.208588 51.453484,149.196014 
z"/>
<path fill="#0E1D08" opacity="1.000000" stroke="none" 
	d="
M82.375366,148.101044 
	C81.998657,147.843155 81.992905,147.674240 81.987717,147.251801 
	C82.302200,145.470444 83.102943,143.856232 82.849678,142.429062 
	C81.390015,134.203613 79.681091,126.022385 78.279617,117.410210 
	C78.502617,116.994247 78.950539,116.988747 79.185287,116.985214 
	C79.420044,116.981674 79.889450,116.970123 79.889450,116.970123 
	C82.016891,127.526123 84.187538,138.073822 86.219009,148.648254 
	C86.483116,150.022995 86.030067,151.535507 85.531540,153.053894 
	C84.351349,151.479065 83.548836,149.834534 82.375366,148.101044 
z"/>
<path fill="#1F3014" opacity="1.000000" stroke="none" 
	d="
M54.009232,122.030609 
	C59.625935,116.605362 61.330750,110.155220 59.082088,102.244392 
	C60.316395,104.492508 61.550396,107.165443 62.784401,109.838387 
	C62.384682,109.915627 61.984962,109.992874 61.585247,110.070122 
	C64.161911,111.175346 66.738571,112.280579 69.454681,113.691635 
	C62.306141,114.839012 62.220345,114.918236 58.876789,122.186340 
	C58.613319,122.759064 58.050175,123.193932 57.143974,123.598709 
	C55.777504,123.013237 54.893368,122.521919 54.009232,122.030609 
z"/>
<path fill="#251E14" opacity="1.000000" stroke="none" 
	d="
M83.632576,103.871460 
	C83.231171,103.877632 82.829773,103.883804 82.151306,104.021484 
	C81.569534,103.816101 80.951981,103.415131 81.005943,103.151711 
	C82.310616,96.783165 83.379868,90.341141 85.169556,84.107002 
	C86.186874,80.563332 89.295807,78.777725 93.479599,79.200150 
	C93.564857,79.725708 93.317047,79.938133 93.026093,80.100220 
	C92.030724,80.861259 91.035355,81.622292 89.643860,82.758080 
	C87.855591,85.697388 85.857086,88.123169 85.230080,90.862839 
	C84.502747,94.040901 84.979607,97.494568 84.641083,101.028702 
	C84.201141,102.129433 84.053871,103.030052 83.845688,103.880722 
	C83.784782,103.830765 83.632576,103.871460 83.632576,103.871460 
z"/>
<path fill="#202F17" opacity="1.000000" stroke="none" 
	d="
M167.068298,46.586269 
	C166.007523,46.146965 164.755112,45.494080 163.781448,44.552868 
	C157.610245,38.587379 150.829742,34.491241 141.356186,36.932579 
	C143.502213,32.711464 147.819763,34.687691 150.844635,35.043224 
	C157.865250,35.868408 163.595154,39.651978 167.068298,46.586269 
z"/>
<path fill="#0E1B07" opacity="1.000000" stroke="none" 
	d="
M160.903534,53.833000 
	C162.901520,51.769520 164.899506,49.706036 166.973938,47.276047 
	C172.008469,47.674732 176.966537,48.439922 182.084442,49.594330 
	C174.710526,48.811550 168.332718,52.315796 161.370178,54.788548 
	C160.952347,54.298313 160.927933,54.065655 160.903534,53.833000 
z"/>
<path fill="#172314" opacity="1.000000" stroke="none" 
	d="
M132.689880,41.287346 
	C132.572891,42.279160 132.109604,43.310795 131.505035,44.657070 
	C133.082977,45.197929 134.642273,45.732395 137.615173,46.751392 
	C131.525864,47.306702 126.941917,47.724731 121.988281,48.050026 
	C125.193588,45.747253 128.768585,43.537216 132.689880,41.287346 
z"/>
<path fill="#18240F" opacity="1.000000" stroke="none" 
	d="
M204.109375,77.388229 
	C203.911331,78.087929 203.724945,78.389091 203.312317,78.831955 
	C200.353012,72.195488 197.619934,65.417320 194.987244,58.263206 
	C197.315002,61.365013 199.843155,64.693474 201.668304,68.370857 
	C202.973969,71.001549 203.337265,74.099960 204.109375,77.388229 
z"/>
<path fill="#0E110F" opacity="1.000000" stroke="none" 
	d="
M115.694260,50.817596 
	C116.079842,51.338409 116.070290,51.813763 115.790543,52.665482 
	C115.344933,53.073742 115.169533,53.105625 114.725296,53.134102 
	C114.281853,53.171150 114.107239,53.211601 113.642960,53.225525 
	C112.833313,53.429848 112.313316,53.660706 111.394333,53.848785 
	C109.659462,53.862328 108.323586,53.918648 106.657913,53.999802 
	C105.587280,55.024303 104.846451,56.023968 104.105614,57.023628 
	C102.081673,51.785851 102.474419,51.098133 107.961594,50.802456 
	C110.400902,50.671017 112.852890,50.775002 115.694260,50.817596 
z"/>
<path fill="#27301D" opacity="1.000000" stroke="none" 
	d="
M206.363281,121.219147 
	C206.820847,120.963264 207.041245,120.973808 207.592560,120.990616 
	C206.757019,126.015945 205.590561,131.035019 204.187073,136.282440 
	C204.675400,131.502380 205.400772,126.493973 206.363281,121.219147 
z"/>
<path fill="#1B2217" opacity="1.000000" stroke="none" 
	d="
M109.228279,63.196125 
	C107.929092,63.142548 106.626839,63.128223 105.331367,63.027096 
	C102.759422,62.826328 100.769829,63.175278 100.914093,66.538918 
	C100.934837,67.022530 99.589699,67.564713 98.445457,68.037796 
	C98.891563,64.195251 98.502548,59.747982 103.509598,57.931110 
	C103.842148,57.975552 103.960228,58.086155 103.837540,58.404716 
	C104.239044,59.761017 104.516243,61.127159 105.349548,61.753906 
	C106.406273,62.548679 107.914658,62.742920 109.228279,63.196125 
z"/>
<path fill="#457C08" opacity="1.000000" stroke="none" 
	d="
M33.001690,145.977646 
	C32.854279,148.908997 32.706867,151.840347 32.321114,155.112366 
	C30.924891,152.687393 29.767012,149.921738 28.299698,146.784882 
	C27.990265,146.413666 27.993309,146.146683 27.993309,146.146683 
	C28.480928,145.840317 28.968544,145.533951 29.754929,145.394028 
	C31.036362,145.699539 32.019024,145.838593 33.001690,145.977646 
z"/>
<path fill="#457C08" opacity="1.000000" stroke="none" 
	d="
M32.795994,156.158783 
	C36.489113,155.260773 40.400108,154.672211 44.745720,154.156601 
	C41.524101,157.145615 37.467762,157.887207 32.795994,156.158783 
z"/>
<path fill="#416E0E" opacity="1.000000" stroke="none" 
	d="
M104.007896,57.213120 
	C104.846451,56.023968 105.587280,55.024303 106.833664,54.263229 
	C108.103233,55.401108 108.867241,56.300396 110.011559,57.647324 
	C107.495804,57.829758 105.728020,57.957954 103.960228,58.086151 
	C103.960228,58.086155 103.842148,57.975552 103.875900,57.902275 
	C103.909660,57.829002 103.910179,57.402603 104.007896,57.213120 
z"/>
<path fill="#44740F" opacity="1.000000" stroke="none" 
	d="
M93.236313,80.329056 
	C93.317047,79.938133 93.564857,79.725708 93.874214,79.240829 
	C94.757706,78.600845 95.536507,78.182983 96.583191,77.786194 
	C95.716232,78.724144 94.581383,79.641014 93.236313,80.329056 
z"/>
<path fill="#18240F" opacity="1.000000" stroke="none" 
	d="
M195.125916,57.551834 
	C193.967255,57.000957 192.777405,56.100121 191.801453,54.982841 
	C193.041824,55.578224 194.068283,56.390049 195.125916,57.551834 
z"/>
<path fill="#061109" opacity="1.000000" stroke="none" 
	d="
M98.415131,73.563263 
	C98.780006,73.222923 99.088806,73.150146 99.650528,73.296181 
	C99.624969,75.095718 99.320663,76.566841 99.016357,78.037964 
	C98.803741,78.055382 98.591125,78.072792 98.097534,77.789047 
	C97.796631,77.293388 97.776695,77.098900 97.756744,76.904404 
	C97.966125,75.916412 98.175507,74.928421 98.415131,73.563263 
z"/>
<path fill="#000607" opacity="1.000000" stroke="none" 
	d="
M79.951691,116.556992 
	C79.889450,116.970123 79.420044,116.981674 79.177155,116.637436 
	C78.907753,115.831390 78.881233,115.369576 78.854713,114.907761 
	C79.016144,114.232445 79.177574,113.557121 79.653519,112.843208 
	C79.983337,113.917694 79.998634,115.030777 79.951691,116.556992 
z"/>
<path fill="#415911" opacity="1.000000" stroke="none" 
	d="
M78.559326,114.921143 
	C78.881233,115.369576 78.907753,115.831390 78.942406,116.640976 
	C78.950539,116.988747 78.502617,116.994247 78.280579,117.019829 
	C77.734009,116.516129 77.409485,115.986839 77.088081,115.130890 
	C77.482117,114.847656 77.873024,114.891090 78.559326,114.921143 
z"/>
<path fill="#457C08" opacity="1.000000" stroke="none" 
	d="
M45.508858,154.196533 
	C45.325455,153.907013 45.441463,153.587753 45.777931,153.125885 
	C46.307121,153.079315 46.562576,153.253479 46.875748,153.712296 
	C46.593918,154.001480 46.201096,154.084152 45.508858,154.196533 
z"/>
<path fill="#457D07" opacity="1.000000" stroke="none" 
	d="
M27.813107,146.095245 
	C27.993309,146.146683 27.990265,146.413666 27.992491,146.547455 
	C27.754301,146.583252 27.513885,146.485260 27.266834,146.195740 
	C27.260199,146.004196 27.632904,146.043808 27.813107,146.095245 
z"/>
<path fill="#44740F" opacity="1.000000" stroke="none" 
	d="
M97.517014,76.946152 
	C97.776695,77.098900 97.796631,77.293388 97.777695,77.779236 
	C97.738838,78.070587 97.285858,77.961067 97.063705,77.890915 
	C96.832100,77.462128 96.977341,77.184509 97.517014,76.946152 
z"/>
<path fill="#895E20" opacity="1.000000" stroke="none" 
	d="
M95.017448,117.983154 
	C98.018494,115.989868 101.052208,114.043152 104.000549,111.974747 
	C104.879166,111.358360 105.518448,110.400826 106.157471,109.268112 
	C117.107170,112.613182 128.166779,116.289742 139.353363,120.288223 
	C138.218246,120.652283 136.738647,121.145561 135.731018,120.659828 
	C130.925354,118.343208 129.986099,121.632027 128.743988,125.001694 
	C128.494751,125.000526 127.996140,125.000465 127.731873,124.814583 
	C126.619858,124.072701 125.772102,123.516701 124.924339,122.960701 
	C124.676674,123.315346 124.429001,123.669991 124.181328,124.024635 
	C125.117477,124.682213 126.053627,125.339783 126.986946,126.249283 
	C126.979599,126.669098 126.975082,126.836990 126.584839,126.997322 
	C124.144028,126.024231 122.088928,125.058701 119.686668,123.930069 
	C118.195457,125.599823 118.070534,125.969574 111.347084,123.697990 
	C107.557968,122.417809 104.260902,119.681221 100.742188,117.600700 
	C99.025208,116.098984 97.689819,120.372292 95.017448,117.983154 
z"/>
<path fill="#477D0B" opacity="1.000000" stroke="none" 
	d="
M176.982224,98.012802 
	C174.562119,98.033318 172.142029,98.053833 169.356049,97.801041 
	C168.990173,97.527725 169.015228,97.078598 169.287811,96.920288 
	C169.702957,96.174309 169.845520,95.586632 169.871368,94.659637 
	C168.150085,93.549469 166.545532,92.778610 164.693634,91.784073 
	C159.044296,88.366615 153.642288,85.172852 147.933807,81.963058 
	C147.091782,81.731186 146.556213,81.515350 146.056366,80.945717 
	C146.846558,79.773964 147.601044,78.956009 149.376114,77.031601 
	C145.501190,77.492714 142.873627,77.805389 139.872070,78.085663 
	C138.997910,78.034485 138.497742,78.015717 138.222412,77.707520 
	C141.547379,76.612381 144.677734,75.903732 147.732300,74.951912 
	C148.910370,74.584824 149.916306,73.665375 151.000671,72.997581 
	C152.105560,73.626488 153.210434,74.255386 154.934296,75.042854 
	C158.892807,76.305542 162.528564,76.908997 165.486176,78.658714 
	C168.281204,80.312248 168.555695,79.080696 169.001419,76.997665 
	C169.326431,77.091713 169.595291,77.270287 169.915527,78.106232 
	C170.692902,79.440712 171.362747,80.202354 172.032593,80.963989 
	C172.032593,80.963989 172.491425,80.966911 172.740753,81.231201 
	C172.997513,81.672050 173.004974,81.848618 172.903564,82.295670 
	C173.522903,83.372162 174.251114,84.178185 174.985229,85.237915 
	C174.993851,85.660767 174.996597,85.829926 174.683105,86.026535 
	C172.974686,86.726616 171.582520,87.399246 170.080444,88.124969 
	C173.408752,90.376015 173.408752,90.376015 175.284241,86.121666 
	C176.375839,86.832169 177.183853,87.421921 177.648193,88.061829 
	C176.867035,89.075058 176.429550,90.038139 175.644699,91.001205 
	C170.792084,91.013840 172.856140,93.150642 174.209595,95.256393 
	C175.274612,95.679581 176.136902,95.838516 176.999603,95.998734 
	C177.000000,96.000000 177.002548,95.999695 177.145996,96.224548 
	C177.853394,96.301094 178.417313,96.152794 179.027588,95.700577 
	C180.051346,95.930634 181.028732,96.464592 182.006134,96.998550 
	C182.785828,99.502556 182.478455,99.905067 179.237732,99.778458 
	C178.274490,98.903191 177.628357,98.458000 176.982224,98.012802 
M151.992950,79.745277 
	C153.513824,79.642334 155.034683,79.539391 156.555557,79.436440 
	C156.471680,78.949150 156.387817,78.461853 156.303940,77.974564 
	C154.768402,78.387978 153.232864,78.801399 151.992950,79.745277 
M162.244629,80.678123 
	C162.169434,79.911339 162.094238,79.144554 162.019043,78.377769 
	C161.306046,78.684799 160.593063,78.991829 159.880066,79.298859 
	C160.462814,79.823326 161.045547,80.347794 162.244629,80.678123 
M166.920258,83.479706 
	C166.775497,83.237137 166.630753,82.994576 166.485992,82.752007 
	C166.351883,83.002129 166.056381,83.317596 166.124512,83.485855 
	C166.209763,83.696404 166.593750,83.786003 166.920258,83.479706 
z"/>
<path fill="#8B5F22" opacity="1.000000" stroke="none" 
	d="
M95.006905,117.992798 
	C97.689819,120.372292 99.025208,116.098984 100.742188,117.600700 
	C104.260902,119.681221 107.557968,122.417809 111.347084,123.697990 
	C118.070534,125.969574 118.195457,125.599823 119.686668,123.930069 
	C122.088928,125.058701 124.144028,126.024231 126.596550,127.245804 
	C126.993973,127.501846 127.001831,127.999390 126.728287,128.032745 
	C127.303192,128.372772 128.151657,128.679459 129.404999,128.988739 
	C133.546616,129.350601 137.283325,129.709869 140.974503,130.369461 
	C140.554703,131.355072 140.180435,132.040359 139.942581,132.475845 
	C141.688080,133.636047 143.350174,134.740814 145.012268,135.845566 
	C137.146988,134.472260 129.188828,133.483795 121.443214,131.614594 
	C114.077644,129.837128 106.876518,127.300461 99.729546,124.744080 
	C97.683289,124.012161 96.076431,122.051811 94.230293,120.087418 
	C94.453400,119.019981 94.714302,118.519852 94.975220,118.019730 
	C94.975220,118.019730 94.996361,118.002434 95.006905,117.992798 
z"/>
<path fill="#0A0D0A" opacity="1.000000" stroke="none" 
	d="
M148.240280,81.979088 
	C153.642288,85.172852 159.044296,88.366615 164.767609,92.069016 
	C163.690094,94.338478 162.291260,96.099312 160.892426,97.860146 
	C153.780624,98.288864 146.836533,98.071182 141.386993,92.322479 
	C143.785919,88.586357 146.013092,85.282722 148.240280,81.979088 
z"/>
<path fill="#0F1110" opacity="1.000000" stroke="none" 
	d="
M107.635910,76.067757 
	C109.187233,72.081337 110.953232,68.402161 113.155212,64.330338 
	C116.069481,64.393021 118.547768,64.848343 121.103088,65.621216 
	C122.814133,66.648880 124.448158,67.358994 126.061722,68.477829 
	C126.023018,70.249199 126.004776,71.611870 125.638947,73.025841 
	C123.537094,76.068672 121.782852,79.060204 119.656662,82.036423 
	C117.853310,81.689171 116.421906,81.357216 114.990501,81.025261 
	C112.610527,79.475166 110.230560,77.925079 107.635910,76.067757 
z"/>
<path fill="#895E20" opacity="1.000000" stroke="none" 
	d="
M84.933746,100.828598 
	C84.979607,97.494568 84.502747,94.040901 85.230080,90.862839 
	C85.857086,88.123169 87.855591,85.697388 89.598465,83.085434 
	C89.716721,90.521729 89.410728,98.042641 96.603729,103.038574 
	C98.479485,104.341385 100.451706,105.505318 102.689774,106.887817 
	C101.253983,107.310402 99.508026,107.578217 97.014221,107.960739 
	C97.316780,108.641998 97.993446,110.165649 98.954842,112.330406 
	C92.293251,112.067200 91.069870,105.364777 87.160378,102.825317 
	C85.986511,103.397316 85.041626,103.857735 83.864662,104.094803 
	C83.632576,103.871460 83.784782,103.830765 84.138451,103.689697 
	C84.639328,102.641960 84.786537,101.735275 84.933746,100.828598 
z"/>
<path fill="#457A0A" opacity="1.000000" stroke="none" 
	d="
M150.592575,72.996704 
	C149.916306,73.665375 148.910370,74.584824 147.732300,74.951912 
	C144.677734,75.903732 141.547379,76.612381 137.866913,77.649544 
	C135.423004,76.899559 133.448853,76.074677 131.743179,74.869743 
	C130.907043,74.279076 130.569366,72.982758 130.006104,72.005798 
	C130.743088,72.004677 131.480072,72.003548 132.982269,72.020531 
	C137.782532,70.026695 141.820755,68.020798 145.812622,65.926567 
	C145.857681,65.902924 145.300308,64.730995 145.024155,64.095093 
	C147.000778,61.980747 146.415802,56.814651 151.627563,59.077141 
	C150.769974,60.620636 149.911331,61.640156 149.052673,62.659672 
	C149.692810,62.741589 150.332947,62.823502 150.973083,62.905411 
	C150.156967,63.978054 149.340866,65.050697 148.241257,66.495956 
	C149.820389,66.416718 151.127228,66.351143 153.445648,66.234810 
	C151.945694,67.577377 151.198654,68.246040 150.178146,69.159462 
	C151.447540,69.752563 152.493683,70.241356 153.539825,70.730148 
	C153.474411,71.089020 153.409012,71.447899 153.343597,71.806770 
	C150.794662,71.628807 148.245743,71.450844 145.696808,71.272881 
	C145.637604,71.689812 145.578400,72.106750 145.519196,72.523682 
	C147.074295,72.681061 148.629379,72.838440 150.592575,72.996704 
z"/>
<path fill="#457A0A" opacity="1.000000" stroke="none" 
	d="
M135.258545,90.605782 
	C134.979385,96.901718 132.742615,103.563896 138.825531,108.656845 
	C139.347305,109.093697 139.486023,110.453156 139.233597,111.188751 
	C139.060623,111.692863 137.925156,111.954391 137.174454,112.148819 
	C136.363693,112.358803 135.499985,112.364487 135.169067,112.401802 
	C132.819641,105.760483 133.096237,98.308662 127.047401,93.151077 
	C125.769775,92.061707 125.650665,89.613625 125.170982,87.139442 
	C126.924126,84.996735 128.504028,83.506180 130.619064,81.510765 
	C131.500305,81.510765 133.636642,81.510765 135.549759,81.798492 
	C133.637283,83.326279 131.948013,84.566345 130.263245,85.803108 
	C130.864975,86.372765 131.519791,86.992683 132.115570,87.957718 
	C132.038086,88.535530 132.019653,88.768227 131.750916,89.001617 
	C131.333725,89.001549 131.166855,89.000771 130.876556,88.795837 
	C130.405106,88.607246 130.057083,88.622818 129.709076,88.638390 
	C130.139389,88.758926 130.569687,88.879463 131.087952,89.168137 
	C131.450409,89.223877 131.724884,89.111481 132.267151,88.994141 
	C132.713150,88.978500 132.891373,88.967804 133.036316,88.971947 
	C133.003021,88.986778 133.030045,88.919075 133.147263,89.159515 
	C133.566681,89.575150 133.868881,89.750343 134.396820,89.961487 
	C134.957352,90.071732 135.169357,90.274513 135.258545,90.605782 
M128.485077,90.585159 
	C128.485077,90.585159 128.420273,90.475891 128.485077,90.585159 
M132.517258,93.407593 
	C132.517258,93.407593 132.584457,93.518303 132.517258,93.407593 
z"/>
<path fill="#916123" opacity="1.000000" stroke="none" 
	d="
M128.993225,125.002853 
	C129.986099,121.632027 130.925354,118.343208 135.731018,120.659828 
	C136.738647,121.145561 138.218246,120.652283 139.725525,120.358253 
	C146.676529,121.396446 153.382355,122.686523 160.517761,124.247536 
	C160.971497,124.687363 160.995651,124.856262 160.847900,125.265900 
	C160.122025,125.676392 159.568024,125.846153 158.543961,126.010147 
	C149.869598,126.220055 141.665833,126.522461 133.460556,126.571869 
	C131.974640,126.580811 130.482498,125.552376 128.993225,125.002853 
z"/>
<path fill="#EDECEB" opacity="1.000000" stroke="none" 
	d="
M132.174622,87.612602 
	C131.519791,86.992683 130.864975,86.372765 130.263245,85.803108 
	C131.948013,84.566345 133.637283,83.326279 135.532272,81.782715 
	C135.737991,81.479202 135.775894,81.486107 135.949982,81.356094 
	C136.344482,81.021904 136.603745,80.901062 137.347443,80.990532 
	C140.535583,81.178177 143.278122,81.238846 146.020660,81.299515 
	C146.556213,81.515350 147.091782,81.731186 147.933807,81.963058 
	C146.013092,85.282722 143.785919,88.586357 141.212189,92.025223 
	C139.243347,91.645493 137.621033,91.130531 135.628632,90.610680 
	C135.169357,90.274513 134.957352,90.071732 134.284775,89.718201 
	C133.641357,89.265671 133.335709,89.092369 133.030045,88.919067 
	C133.030045,88.919075 133.003021,88.986778 132.959381,88.699280 
	C132.668716,88.145378 132.421661,87.878990 132.174622,87.612602 
z"/>
<path fill="#916123" opacity="1.000000" stroke="none" 
	d="
M145.340790,135.886566 
	C143.350174,134.740814 141.688080,133.636047 139.942581,132.475845 
	C140.180435,132.040359 140.554703,131.355072 141.382721,130.348297 
	C147.563538,129.012970 153.290573,127.999161 159.376511,127.026199 
	C160.823715,128.379456 161.912033,129.691864 162.639114,131.007843 
	C157.585510,130.262558 153.723267,133.143448 149.397690,134.018997 
	C148.507385,134.199203 147.788406,135.225845 146.990463,135.862366 
	C146.550079,135.884094 146.109711,135.905823 145.340790,135.886566 
z"/>
<path fill="#468104" opacity="1.000000" stroke="none" 
	d="
M135.755478,81.494980 
	C133.636642,81.510765 131.500305,81.510765 130.619064,81.510765 
	C128.504028,83.506180 126.924126,84.996735 125.167557,86.743439 
	C124.405602,86.509041 123.820305,86.018509 123.055573,84.933899 
	C122.821999,84.124077 122.767860,83.908318 122.740265,83.709061 
	C122.766823,83.725578 122.788864,83.783813 123.131912,83.823898 
	C123.949928,83.458191 124.424889,83.052391 124.873611,82.483429 
	C124.847382,82.320267 125.001884,82.028099 125.303909,82.124420 
	C126.404282,80.628189 127.281357,79.069267 127.979691,77.434006 
	C128.737961,75.658386 129.329956,73.811760 129.994446,71.996094 
	C129.994446,71.996094 129.999756,71.999886 130.002930,72.002838 
	C130.569366,72.982758 130.907043,74.279076 131.743179,74.869743 
	C133.448853,76.074677 135.423004,76.899559 137.642059,77.938980 
	C138.497742,78.015717 138.997910,78.034485 139.659119,78.331581 
	C138.879181,79.072769 137.938217,79.535629 136.677948,80.039810 
	C136.164413,80.549454 135.970154,81.017776 135.775894,81.486107 
	C135.775894,81.486107 135.737991,81.479202 135.755478,81.494980 
z"/>
<path fill="#457A0A" opacity="1.000000" stroke="none" 
	d="
M122.713715,83.692551 
	C122.767860,83.908318 122.821999,84.124077 122.933517,84.668518 
	C122.420609,86.120003 121.850319,87.242813 120.833221,88.509048 
	C118.607750,88.078911 116.829086,87.505348 114.888031,86.670105 
	C114.049232,86.335472 113.372818,86.262527 112.696411,86.189583 
	C112.675476,86.409317 112.654533,86.629059 112.633598,86.848801 
	C113.404305,86.918633 114.175011,86.988472 115.070076,87.334076 
	C113.793930,88.366425 112.393433,89.123024 110.992935,89.879623 
	C109.349915,85.878197 110.851616,83.238068 114.790955,81.296013 
	C116.421906,81.357216 117.853310,81.689171 119.846649,82.227707 
	C121.176964,82.853722 121.945343,83.273132 122.713715,83.692551 
z"/>
<path fill="#457A0A" opacity="1.000000" stroke="none" 
	d="
M174.999344,85.999084 
	C174.996597,85.829926 174.993851,85.660767 174.988403,84.910599 
	C174.981750,83.892975 174.977798,83.456345 174.987427,83.008766 
	C175.001007,82.997810 175.027145,82.973267 175.027145,82.973267 
	C179.301971,82.703712 179.558029,86.201149 180.418076,88.934250 
	C181.156097,91.279510 181.489853,93.751968 182.004272,96.583359 
	C181.028732,96.464592 180.051346,95.930634 178.698090,95.697083 
	C177.882324,95.998230 177.442444,95.998962 177.002548,95.999695 
	C177.002548,95.999695 177.000000,96.000000 176.855591,95.766823 
	C175.809753,95.353142 174.908325,95.172638 174.006882,94.992134 
	C172.856140,93.150642 170.792084,91.013840 175.981628,90.997910 
	C177.107910,90.000320 177.549896,89.005997 177.991867,88.011673 
	C177.183853,87.421921 176.375839,86.832169 175.283905,86.121208 
	C175.000000,86.000000 174.999344,85.999084 174.999344,85.999084 
z"/>
<path fill="#8B5F22" opacity="1.000000" stroke="none" 
	d="
M147.452606,135.911346 
	C147.788406,135.225845 148.507385,134.199203 149.397690,134.018997 
	C153.723267,133.143448 157.585510,130.262558 162.606949,131.350037 
	C162.619949,132.777893 162.303879,133.867172 161.987793,134.956421 
	C157.296783,135.291077 152.605759,135.625717 147.452606,135.911346 
z"/>
<path fill="#44740F" opacity="1.000000" stroke="none" 
	d="
M99.211967,78.301743 
	C99.320663,76.566841 99.624969,75.095718 99.886810,73.247086 
	C100.015450,71.471680 100.186562,70.073776 100.467857,67.775726 
	C102.133888,70.190392 103.098526,71.588486 103.823105,73.442001 
	C102.981453,74.052101 102.379868,74.206787 101.778275,74.361465 
	C102.269562,75.053047 102.760857,75.744621 103.627274,76.964264 
	C103.952827,75.300537 104.102921,74.533470 104.253021,73.766403 
	C104.796387,74.262062 105.339767,74.757713 105.997887,75.512794 
	C105.144814,77.398216 104.177002,79.024216 103.069336,80.885170 
	C101.794022,80.077278 100.600800,79.321396 99.211967,78.301743 
z"/>
<path fill="#457A0A" opacity="1.000000" stroke="none" 
	d="
M168.608017,76.994232 
	C168.555695,79.080696 168.281204,80.312248 165.486176,78.658714 
	C162.528564,76.908997 158.892807,76.305542 155.260864,75.086220 
	C155.444427,69.517235 158.532440,72.953339 160.418076,73.559158 
	C163.106888,74.423019 165.624100,75.820976 168.608017,76.994232 
z"/>
<path fill="#8B5F29" opacity="1.000000" stroke="none" 
	d="
M162.315125,134.849335 
	C162.303879,133.867172 162.619949,132.777893 162.968185,131.346451 
	C161.912033,129.691864 160.823715,128.379456 159.372864,126.783936 
	C159.010330,126.500824 159.014038,126.015915 159.014038,126.015915 
	C159.568024,125.846153 160.122025,125.676392 161.152344,125.306305 
	C162.599136,125.418015 163.569580,125.730064 164.786179,126.297363 
	C165.787888,127.614395 166.543457,128.676163 167.299026,129.737946 
	C165.746841,131.406052 164.194641,133.074142 162.315125,134.849335 
z"/>
<path fill="#142E05" opacity="1.000000" stroke="none" 
	d="
M151.183716,62.651146 
	C150.332947,62.823502 149.692810,62.741589 149.052673,62.659672 
	C149.911331,61.640156 150.769974,60.620636 151.828400,59.351391 
	C154.763474,57.403259 157.498779,55.704861 160.568802,53.919727 
	C160.927933,54.065655 160.952347,54.298313 161.007477,54.882034 
	C157.823593,57.621021 154.608978,60.008945 151.183716,62.651146 
z"/>
<path fill="#37531E" opacity="1.000000" stroke="none" 
	d="
M161.343857,97.895248 
	C162.291260,96.099312 163.690094,94.338478 165.014954,92.292702 
	C166.545532,92.778610 168.150085,93.549469 169.514740,94.639496 
	C169.188309,95.665306 169.101761,96.371956 169.015228,97.078598 
	C169.015228,97.078598 168.990173,97.527725 168.976410,97.751953 
	C166.573532,97.960907 164.184418,97.945625 161.343857,97.895248 
z"/>
<path fill="#0D2E03" opacity="1.000000" stroke="none" 
	d="
M115.050423,86.931786 
	C116.829086,87.505348 118.607750,88.078911 120.702026,88.809418 
	C116.963501,90.220512 112.909363,91.474663 108.227783,92.922913 
	C109.160858,91.744522 109.784126,90.957390 110.700165,90.024940 
	C112.393433,89.123024 113.793930,88.366425 115.097229,87.303253 
	C115.000015,86.996666 115.050423,86.931786 115.050423,86.931786 
z"/>
<path fill="#3F6315" opacity="1.000000" stroke="none" 
	d="
M164.540039,126.042114 
	C163.569580,125.730064 162.599136,125.418015 161.324234,125.065559 
	C160.995651,124.856262 160.971497,124.687363 160.912354,124.264587 
	C161.839417,123.124710 162.801483,122.238701 164.266953,120.889061 
	C165.566971,122.417496 166.784866,123.849373 167.924622,125.776993 
	C167.565216,126.202354 167.283936,126.131973 166.918869,125.810959 
	C166.213699,125.554504 165.592316,125.548683 164.890259,125.691017 
	C164.809586,125.839172 164.540039,126.042114 164.540039,126.042114 
z"/>
<path fill="#0E0D05" opacity="1.000000" stroke="none" 
	d="
M167.002670,126.061600 
	C167.283936,126.131973 167.565216,126.202354 167.930817,126.108078 
	C167.996918,127.217148 167.978683,128.490875 167.629745,129.751282 
	C166.543457,128.676163 165.787888,127.614395 164.786179,126.297363 
	C164.540039,126.042114 164.809586,125.839172 165.206497,125.857468 
	C166.069824,125.937706 166.536255,125.999657 167.002670,126.061600 
z"/>
<path fill="#457A0A" opacity="1.000000" stroke="none" 
	d="
M172.023254,80.721146 
	C171.362747,80.202354 170.692902,79.440712 170.036819,78.319252 
	C170.050583,77.959427 170.526047,77.983658 170.784653,78.288795 
	C171.359726,79.060196 171.676193,79.526451 171.992676,79.992706 
	C171.992676,79.992706 172.013931,80.478294 172.023254,80.721146 
z"/>
<path fill="#457A0A" opacity="1.000000" stroke="none" 
	d="
M173.012451,82.025192 
	C173.004974,81.848618 172.997513,81.672050 172.970154,81.230782 
	C173.074677,80.652306 173.275726,80.399452 173.887024,80.325401 
	C174.420242,80.713081 174.680023,80.898552 175.000031,80.999710 
	C175.004318,81.438538 175.008621,81.877365 175.020035,82.644730 
	C175.027145,82.973267 175.001007,82.997810 174.735107,82.897903 
	C173.983612,82.540398 173.498032,82.282799 173.012451,82.025192 
z"/>
<path fill="#457A0A" opacity="1.000000" stroke="none" 
	d="
M177.028290,98.333435 
	C177.628357,98.458000 178.274490,98.903191 178.964447,99.669250 
	C178.363632,99.544769 177.718994,99.099419 177.028290,98.333435 
z"/>
<path fill="#895E20" opacity="1.000000" stroke="none" 
	d="
M94.662842,118.053787 
	C94.714302,118.519852 94.453400,119.019981 94.082214,119.782150 
	C93.971931,120.044197 93.486259,119.989059 93.243797,119.958328 
	C93.451042,119.314339 93.900749,118.701088 94.662842,118.053787 
z"/>
<path fill="#457A0A" opacity="1.000000" stroke="none" 
	d="
M136.600555,99.274429 
	C136.441635,99.148399 136.418793,98.930733 136.395950,98.713066 
	C136.509506,98.869637 136.623077,99.026215 136.600555,99.274429 
z"/>
<path fill="#477D0B" opacity="1.000000" stroke="none" 
	d="
M171.976654,79.695663 
	C171.676193,79.526451 171.359726,79.060196 171.022522,78.297729 
	C171.321396,78.467216 171.641022,78.932922 171.976654,79.695663 
z"/>
<path fill="#477D0B" opacity="1.000000" stroke="none" 
	d="
M174.893829,80.780426 
	C174.680023,80.898552 174.420242,80.713081 174.111450,80.226944 
	C174.328430,80.102280 174.590210,80.285789 174.893829,80.780426 
z"/>
<path fill="#447709" opacity="1.000000" stroke="none" 
	d="
M121.026062,65.303665 
	C118.547768,64.848343 116.069481,64.393021 113.166145,63.993099 
	C111.714211,63.909550 110.687325,63.770603 109.444351,63.413887 
	C107.914658,62.742920 106.406273,62.548679 105.349548,61.753906 
	C104.516243,61.127159 104.239044,59.761017 103.837540,58.404716 
	C105.728020,57.957954 107.495804,57.829758 110.011559,57.647324 
	C108.867241,56.300396 108.103233,55.401108 107.163467,54.238396 
	C108.323586,53.918648 109.659462,53.862328 111.694580,53.875965 
	C112.906754,53.714634 113.419685,53.483345 113.932617,53.252052 
	C114.107239,53.211601 114.281853,53.171150 114.801392,53.467209 
	C118.100388,55.201073 121.054459,56.598431 124.008522,57.995785 
	C124.450798,58.421177 124.893082,58.846569 125.335358,59.271957 
	C124.698868,59.638554 124.062386,60.005154 122.896141,60.476360 
	C119.027565,59.093761 115.688736,57.606552 111.133659,55.577595 
	C115.605202,59.451447 118.814629,62.231876 121.768341,65.063889 
	C121.350441,65.178200 121.188248,65.240929 121.026062,65.303665 
z"/>
<path fill="#457A0A" opacity="1.000000" stroke="none" 
	d="
M129.996399,71.613556 
	C129.329956,73.811760 128.737961,75.658386 127.979691,77.434006 
	C127.281357,79.069267 126.404282,80.628189 125.418243,81.727768 
	C125.482544,78.481377 125.734535,75.727959 125.986542,72.974533 
	C126.004776,71.611870 126.023018,70.249199 126.309265,68.301544 
	C126.051956,66.818390 125.526634,65.920212 124.969948,64.653580 
	C124.894936,63.548244 124.851288,62.811378 124.807640,62.074512 
	C127.021568,63.217384 129.235504,64.360252 131.220047,65.384712 
	C130.776764,67.505981 130.387558,69.368492 129.996399,71.613556 
z"/>
<path fill="#111A16" opacity="1.000000" stroke="none" 
	d="
M124.565315,61.942986 
	C124.851288,62.811378 124.894936,63.548244 124.597397,64.658417 
	C123.512146,65.025253 122.768097,65.018776 122.024048,65.012306 
	C118.814629,62.231876 115.605202,59.451447 111.133659,55.577595 
	C115.688736,57.606552 119.027565,59.093761 122.696884,60.672142 
	C123.459259,61.112701 123.891129,61.462082 124.565315,61.942986 
z"/>
<path fill="#0B1C07" opacity="1.000000" stroke="none" 
	d="
M144.827148,64.363503 
	C145.300308,64.730995 145.857681,65.902924 145.812622,65.926567 
	C141.820755,68.020798 137.782532,70.026695 133.350754,72.024582 
	C133.250259,71.578857 133.546524,71.147194 134.285828,70.407776 
	C135.199020,69.766327 135.669159,69.432632 136.139297,69.098938 
	C138.969589,67.609932 141.799866,66.120918 144.827148,64.363503 
z"/>
<path fill="#416E0E" opacity="1.000000" stroke="none" 
	d="
M123.995041,57.621155 
	C121.054459,56.598431 118.100388,55.201073 115.070221,53.470612 
	C115.169533,53.105625 115.344933,53.073742 115.787453,53.022171 
	C118.696899,54.417164 121.339226,55.831844 123.995041,57.621155 
z"/>
<path fill="#457A0A" opacity="1.000000" stroke="none" 
	d="
M135.894623,68.954086 
	C135.669159,69.432632 135.199020,69.766327 134.448639,70.192680 
	C134.085403,69.454842 134.002411,68.624336 133.919418,67.793839 
	C134.496262,68.132301 135.073090,68.470772 135.894623,68.954086 
z"/>
<path fill="#457E07" opacity="1.000000" stroke="none" 
	d="
M48.920837,120.003899 
	C49.129086,120.279755 49.337334,120.555618 49.801620,121.257378 
	C50.423119,122.111366 50.788578,122.539459 51.354652,123.025810 
	C51.827644,123.196014 52.023109,123.386772 52.098053,124.084366 
	C52.065716,125.365883 52.076981,126.219383 52.058769,127.036392 
	C52.029289,126.999901 52.067493,127.084846 51.662384,127.057526 
	C48.411354,125.855499 45.565434,124.680786 42.439434,123.390465 
	C42.681061,125.265175 42.689121,127.055161 43.170784,128.707062 
	C44.189754,132.201691 47.753876,133.337555 50.278774,130.887665 
	C51.750462,131.119980 52.941048,131.497330 54.131638,131.874680 
	C53.836525,132.708633 53.541412,133.542603 52.784363,134.687424 
	C51.881847,135.000076 51.441265,135.001877 50.731468,134.906830 
	C50.326202,135.885880 50.190144,136.961792 50.054085,138.037704 
	C50.054085,138.037704 50.037994,138.034363 50.044788,138.043610 
	C49.720348,138.037628 49.257114,138.159698 49.077381,137.986893 
	C45.573124,134.617905 41.204266,133.484970 36.121166,134.148483 
	C36.213169,133.647247 36.305168,133.145996 36.397171,132.644760 
	C37.705891,132.265503 39.014610,131.886261 40.142681,131.559357 
	C39.088398,128.329376 38.045319,125.133713 37.001945,121.557083 
	C38.617901,121.064774 40.234154,120.953430 42.624691,120.910698 
	C45.239597,120.654175 47.080215,120.329033 48.920837,120.003899 
z"/>
<path fill="#0D2006" opacity="1.000000" stroke="none" 
	d="
M54.485619,131.827026 
	C52.941048,131.497330 51.750462,131.119980 49.908043,130.857452 
	C48.191734,130.474686 47.127251,129.977097 46.062763,129.479507 
	C47.361687,128.317566 48.315762,128.351334 49.211372,128.138779 
	C50.191582,127.906151 51.117767,127.445900 52.067497,127.084854 
	C52.067493,127.084846 52.029289,126.999901 52.350075,126.916183 
	C52.494457,125.773766 52.318058,124.715050 52.141659,123.656342 
	C52.023109,123.386772 51.827644,123.196014 51.392452,122.751740 
	C51.498814,121.936615 51.767982,121.453835 52.037155,120.971054 
	C52.037155,120.971054 52.009422,120.993324 51.994644,121.003654 
	C52.478271,121.282982 52.976681,121.551987 53.742161,121.925797 
	C54.893368,122.521919 55.777504,123.013237 56.849739,123.757248 
	C56.305092,126.599754 55.572342,129.189575 54.485619,131.827026 
z"/>
<path fill="#457D07" opacity="1.000000" stroke="none" 
	d="
M50.344994,138.009491 
	C50.190144,136.961792 50.326202,135.885880 50.750626,135.199326 
	C51.343353,136.054443 51.647720,136.520203 51.952091,136.985962 
	C51.513363,137.317734 51.074635,137.649506 50.344994,138.009491 
z"/>
<path fill="#457C08" opacity="1.000000" stroke="none" 
	d="
M52.217957,136.878784 
	C51.647720,136.520203 51.343353,136.054443 51.019833,135.296173 
	C51.441265,135.001877 51.881847,135.000076 52.652565,134.995483 
	C53.387527,135.153824 53.792358,135.314972 54.197186,135.476135 
	C53.626064,135.907959 53.054943,136.339767 52.217957,136.878784 
z"/>
<path fill="#457C08" opacity="1.000000" stroke="none" 
	d="
M38.706245,144.127655 
	C38.134647,144.506332 37.267670,145.009064 36.200726,145.258362 
	C36.804131,144.753845 37.607494,144.502792 38.706245,144.127655 
z"/>
<path fill="#457C08" opacity="1.000000" stroke="none" 
	d="
M43.219917,144.845139 
	C42.677555,144.898163 42.416302,144.710953 42.107548,144.219391 
	C42.481693,143.831329 42.964680,143.662033 43.447662,143.492752 
	C43.445004,143.891998 43.442341,144.291260 43.219917,144.845139 
z"/>
<path fill="#457C08" opacity="1.000000" stroke="none" 
	d="
M45.473984,142.498352 
	C45.401417,142.090485 45.482334,141.839035 45.563248,141.587585 
	C45.838001,141.868683 46.112755,142.149796 46.387512,142.430908 
	C46.134163,142.505524 45.880817,142.580139 45.473984,142.498352 
z"/>
<path fill="#2C5203" opacity="1.000000" stroke="none" 
	d="
M49.997574,138.997620 
	C49.879448,139.430405 49.763660,139.865570 49.647873,140.300735 
	C49.629673,139.951157 49.611469,139.601593 49.798649,139.127350 
	C50.004032,139.002670 49.999912,138.999985 49.997574,138.997620 
z"/>
<path fill="#2C5203" opacity="1.000000" stroke="none" 
	d="
M47.462654,140.528183 
	C47.431465,140.475311 47.493839,140.581055 47.462654,140.528183 
z"/>
<path fill="#457D07" opacity="1.000000" stroke="none" 
	d="
M33.000172,145.590088 
	C32.019024,145.838593 31.036362,145.699539 30.018629,145.278412 
	C29.796869,143.812881 29.610178,142.629440 29.423487,141.445984 
	C29.917078,141.223999 30.410669,141.002014 30.904261,140.780029 
	C31.602390,142.254196 32.300522,143.728378 33.000172,145.590088 
z"/>
<path fill="#457D07" opacity="1.000000" stroke="none" 
	d="
M48.743877,119.703522 
	C47.080215,120.329033 45.239597,120.654175 43.029057,120.916367 
	C44.628395,120.369995 46.597656,119.886566 48.743877,119.703522 
z"/>
<path fill="#457D07" opacity="1.000000" stroke="none" 
	d="
M51.697052,120.981262 
	C51.767982,121.453835 51.498814,121.936615 51.191841,122.693481 
	C50.788578,122.539459 50.423119,122.111366 50.029221,121.386803 
	C50.452835,121.057381 50.904896,121.024422 51.697052,120.981262 
z"/>
<path fill="#8B5F22" opacity="1.000000" stroke="none" 
	d="
M84.641083,101.028702 
	C84.786537,101.735275 84.639328,102.641960 84.199356,103.739655 
	C84.053871,103.030052 84.201141,102.129433 84.641083,101.028702 
z"/>
<path fill="#416E0E" opacity="1.000000" stroke="none" 
	d="
M113.642960,53.225521 
	C113.419685,53.483345 112.906754,53.714634 112.093575,53.918743 
	C112.313316,53.660706 112.833313,53.429848 113.642960,53.225521 
z"/>
<path fill="#825C1B" opacity="1.000000" stroke="none" 
	d="
M158.543961,126.010147 
	C159.014038,126.015915 159.010330,126.500824 159.013977,126.743088 
	C153.290573,127.999161 147.563538,129.012970 141.428253,130.047943 
	C137.283325,129.709869 133.546616,129.350601 129.235657,128.747101 
	C128.108231,128.335037 127.555031,128.167221 127.001831,127.999390 
	C127.001831,127.999390 126.993973,127.501846 126.982269,127.253365 
	C126.975082,126.836990 126.979599,126.669098 127.207321,126.142319 
	C127.704979,125.584534 127.893524,125.323540 127.996140,125.000465 
	C127.996140,125.000465 128.494751,125.000526 128.743988,125.001694 
	C130.482498,125.552376 131.974640,126.580811 133.460556,126.571869 
	C141.665833,126.522461 149.869598,126.220055 158.543961,126.010147 
M139.762268,127.466064 
	C140.150436,127.591957 140.533966,127.738937 140.930649,127.826027 
	C141.010330,127.843513 141.139999,127.633453 141.246613,127.528320 
	C140.858307,127.402290 140.470016,127.276260 139.762268,127.466064 
z"/>
<path fill="#8B5F22" opacity="1.000000" stroke="none" 
	d="
M127.731873,124.814583 
	C127.893524,125.323540 127.704979,125.584534 127.210144,125.890404 
	C126.053627,125.339783 125.117477,124.682213 124.181328,124.024635 
	C124.429001,123.669991 124.676674,123.315346 124.924339,122.960701 
	C125.772102,123.516701 126.619858,124.072701 127.731873,124.814583 
z"/>
<path fill="#1A2618" opacity="1.000000" stroke="none" 
	d="
M136.997238,79.998489 
	C137.938217,79.535629 138.879181,79.072769 140.033112,78.363983 
	C142.873627,77.805389 145.501190,77.492714 149.376114,77.031601 
	C147.601044,78.956009 146.846558,79.773964 146.056366,80.945717 
	C143.278122,81.238846 140.535583,81.178177 137.367065,80.773926 
	C136.941101,80.430336 136.997238,79.998489 136.997238,79.998489 
z"/>
<path fill="#457A0A" opacity="1.000000" stroke="none" 
	d="
M175.000320,86.000458 
	C173.408752,90.376015 173.408752,90.376015 170.080444,88.124969 
	C171.582520,87.399246 172.974686,86.726616 174.683105,86.026535 
	C174.999344,85.999084 175.000000,86.000000 175.000320,86.000458 
z"/>
<path fill="#457A0A" opacity="1.000000" stroke="none" 
	d="
M151.845139,79.480042 
	C153.232864,78.801399 154.768402,78.387978 156.303940,77.974564 
	C156.387817,78.461853 156.471680,78.949150 156.555557,79.436440 
	C155.034683,79.539391 153.513824,79.642334 151.845139,79.480042 
z"/>
<path fill="#457A0A" opacity="1.000000" stroke="none" 
	d="
M161.936462,80.775192 
	C161.045547,80.347794 160.462814,79.823326 159.880066,79.298859 
	C160.593063,78.991829 161.306046,78.684799 162.019043,78.377769 
	C162.094238,79.144554 162.169434,79.911339 161.936462,80.775192 
z"/>
<path fill="#468302" opacity="1.000000" stroke="none" 
	d="
M177.648193,88.061829 
	C177.549896,89.005997 177.107910,90.000320 176.329010,90.997932 
	C176.429550,90.038139 176.867035,89.075058 177.648193,88.061829 
z"/>
<path fill="#468302" opacity="1.000000" stroke="none" 
	d="
M172.903564,82.295670 
	C173.498032,82.282799 173.983612,82.540398 174.721512,82.908859 
	C174.977798,83.456345 174.981750,83.892975 174.982513,84.656906 
	C174.251114,84.178185 173.522903,83.372162 172.903564,82.295670 
z"/>
<path fill="#468302" opacity="1.000000" stroke="none" 
	d="
M174.209595,95.256393 
	C174.908325,95.172638 175.809753,95.353142 176.855194,95.765549 
	C176.136902,95.838516 175.274612,95.679581 174.209595,95.256393 
z"/>
<path fill="#A1A296" opacity="1.000000" stroke="none" 
	d="
M169.287811,96.920288 
	C169.101761,96.371956 169.188309,95.665306 169.631470,94.978806 
	C169.845520,95.586632 169.702957,96.174309 169.287811,96.920288 
z"/>
<path fill="#457A0A" opacity="1.000000" stroke="none" 
	d="
M166.884521,83.703751 
	C166.593750,83.786003 166.209763,83.696404 166.124512,83.485855 
	C166.056381,83.317596 166.351883,83.002129 166.485992,82.752007 
	C166.630753,82.994576 166.775497,83.237137 166.884521,83.703751 
z"/>
<path fill="#468302" opacity="1.000000" stroke="none" 
	d="
M177.145996,96.224548 
	C177.442444,95.998962 177.882324,95.998230 178.651733,96.000992 
	C178.417313,96.152794 177.853394,96.301094 177.145996,96.224548 
z"/>
<path fill="#895E20" opacity="1.000000" stroke="none" 
	d="
M126.728287,128.032745 
	C127.555031,128.167221 128.108231,128.335037 128.830765,128.744507 
	C128.151657,128.679459 127.303192,128.372772 126.728287,128.032745 
z"/>
<path fill="#CCCACE" opacity="1.000000" stroke="none" 
	d="
M125.638939,73.025841 
	C125.734535,75.727959 125.482544,78.481377 125.116219,81.631454 
	C125.001884,82.028099 124.847382,82.320267 124.549477,82.534943 
	C123.764000,83.094345 123.276436,83.439087 122.788864,83.783813 
	C122.788864,83.783813 122.766823,83.725578 122.740265,83.709061 
	C121.945343,83.273132 121.176964,82.853722 120.218597,82.243019 
	C121.782852,79.060204 123.537094,76.068672 125.638939,73.025841 
z"/>
<path fill="#001101" opacity="1.000000" stroke="none" 
	d="
M121.768341,65.063889 
	C122.768097,65.018776 123.512146,65.025253 124.628754,65.026886 
	C125.526634,65.920212 126.051956,66.818390 126.329735,67.892838 
	C124.448158,67.358994 122.814133,66.648880 121.103088,65.621216 
	C121.188248,65.240929 121.350441,65.178200 121.768341,65.063889 
z"/>
<path fill="#468302" opacity="1.000000" stroke="none" 
	d="
M130.876556,88.795837 
	C130.569687,88.879463 130.139389,88.758926 129.709076,88.638390 
	C130.057083,88.622818 130.405106,88.607246 130.876556,88.795837 
z"/>
<path fill="#468302" opacity="1.000000" stroke="none" 
	d="
M132.115570,87.957718 
	C132.421661,87.878990 132.668716,88.145378 132.992676,88.684448 
	C132.891373,88.967804 132.713150,88.978500 132.267456,88.994598 
	C132.000000,89.000000 132.001221,89.000916 132.001221,89.000916 
	C132.019653,88.768227 132.038086,88.535530 132.115570,87.957718 
z"/>
<path fill="#468302" opacity="1.000000" stroke="none" 
	d="
M131.087952,89.168137 
	C131.166855,89.000771 131.333725,89.001549 131.750916,89.001617 
	C132.001221,89.000916 132.000000,89.000000 131.999695,88.999542 
	C131.724884,89.111481 131.450409,89.223877 131.087952,89.168137 
z"/>
<path fill="#468302" opacity="1.000000" stroke="none" 
	d="
M133.147263,89.159508 
	C133.335709,89.092369 133.641357,89.265671 134.059052,89.682251 
	C133.868881,89.750343 133.566681,89.575150 133.147263,89.159508 
z"/>
<path fill="#468302" opacity="1.000000" stroke="none" 
	d="
M128.452667,90.530525 
	C128.420273,90.475891 128.485077,90.585159 128.452667,90.530525 
z"/>
<path fill="#468302" opacity="1.000000" stroke="none" 
	d="
M132.550858,93.462952 
	C132.584457,93.518303 132.517258,93.407593 132.550858,93.462952 
z"/>
<path fill="#457A0A" opacity="1.000000" stroke="none" 
	d="
M136.677948,80.039810 
	C136.997238,79.998489 136.941101,80.430336 136.921478,80.646942 
	C136.603745,80.901062 136.344482,81.021904 135.949982,81.356094 
	C135.970154,81.017776 136.164413,80.549454 136.677948,80.039810 
z"/>
<path fill="#457A0A" opacity="1.000000" stroke="none" 
	d="
M123.131920,83.823906 
	C123.276436,83.439087 123.764000,83.094345 124.575714,82.698105 
	C124.424889,83.052391 123.949928,83.458191 123.131920,83.823906 
z"/>
<path fill="#0D2E03" opacity="1.000000" stroke="none" 
	d="
M114.972870,87.027489 
	C114.175011,86.988472 113.404305,86.918633 112.633598,86.848801 
	C112.654533,86.629059 112.675476,86.409317 112.696411,86.189583 
	C113.372818,86.262527 114.049232,86.335472 114.888031,86.670105 
	C115.050423,86.931786 115.000015,86.996666 114.972870,87.027489 
z"/>
<path fill="#468302" opacity="1.000000" stroke="none" 
	d="
M104.131561,73.878143 
	C104.102921,74.533470 103.952827,75.300537 103.627274,76.964264 
	C102.760857,75.744621 102.269562,75.053047 101.778275,74.361465 
	C102.379868,74.206787 102.981453,74.052101 103.907997,73.821823 
	C104.232948,73.746231 104.010094,73.989891 104.131561,73.878143 
z"/>
<path fill="#4B623C" opacity="1.000000" stroke="none" 
	d="
M166.918869,125.810959 
	C166.536255,125.999657 166.069824,125.937706 165.287170,125.709312 
	C165.592316,125.548683 166.213699,125.554504 166.918869,125.810959 
z"/>
<path fill="#457D07" opacity="1.000000" stroke="none" 
	d="
M51.662384,127.057533 
	C51.117767,127.445900 50.191582,127.906151 49.211372,128.138779 
	C48.315762,128.351334 47.361687,128.317566 46.062763,129.479507 
	C47.127251,129.977097 48.191734,130.474686 49.626945,131.002472 
	C47.753876,133.337555 44.189754,132.201691 43.170784,128.707062 
	C42.689121,127.055161 42.681061,125.265175 42.439434,123.390465 
	C45.565434,124.680786 48.411354,125.855499 51.662384,127.057533 
z"/>
<path fill="#457D07" opacity="1.000000" stroke="none" 
	d="
M52.098053,124.084366 
	C52.318058,124.715050 52.494457,125.773766 52.379551,126.952675 
	C52.076981,126.219383 52.065716,125.365883 52.098053,124.084366 
z"/>
<path fill="#8B5F22" opacity="1.000000" stroke="none" 
	d="
M139.921997,127.308144 
	C140.470016,127.276260 140.858307,127.402290 141.246613,127.528320 
	C141.139999,127.633453 141.010330,127.843513 140.930649,127.826027 
	C140.533966,127.738937 140.150436,127.591957 139.921997,127.308144 
z"/>
</svg>